PathFileType	4	(X/Y/Z)	OpenSim_Sub08_EMGStiffKnee_Gyro.trc
DataRate	CameraRate	NumFrames	NumMarkers	Units	OrigDataRate	OrigDataStartFrame	OrigNumFrames
100	100	20	8	m	100	5514	6301
Frame#	Time	torso_imu_offset_imu	pelvis_imu_offset_imu	tibia_r_imu_offset_imu	femur_r_imu_offset_imu	tibia_l_imu_offset_imu	femur_l_imu_offset_imu	toes_r_imu_offset_imu	toes_l_imu_offset_imu
				X1	Y1	Z1	X2	Y2	Z2	X3	Y3	Z3	X4	Y4	Z4	X5	Y5	Z5	X6	Y6	Z6	X7	Y7	Z7	X8		Y8	Z8	

5514	55.13000000	-0.31827801	-0.10062642	0.01721334	0.15912128	-0.05012159	0.22756989	1.15094481	0.38812408	1.84661980	1.18505142	-0.05571940	0.99202426	0.59642825	-0.30161209	0.76224610	1.31190892	-0.25528998	0.38843097	-0.35104378	1.29256707	1.41292040	0.06698835	-0.15090014	0.09528901
5515	55.14000000	-0.28698508	-0.09879012	0.03302290	0.17836739	-0.04432125	0.25293855	1.21544319	0.40577742	1.84556840	1.13830904	-0.00302257	1.00479834	0.50722285	-0.27622891	0.73690433	1.37029880	-0.24493232	0.33861054	-0.35822432	1.24083873	1.53975196	0.08541884	-0.13907968	0.07432636
5516	55.15000000	-0.27557859	-0.09524671	0.05370196	0.23405351	-0.04173837	0.26820326	1.22966117	0.40749248	1.81664882	1.07674128	0.05350760	1.04819727	0.37312121	-0.25915863	0.73330341	1.28442274	-0.25458692	0.28238024	-0.25983669	1.22951431	1.66405876	0.03155762	-0.07998817	0.06179292
5517	55.16000000	-0.26561810	-0.09728101	0.06320201	0.31364220	-0.04457041	0.25790722	1.18701248	0.40785518	1.79485015	0.93926623	0.10409509	1.09862924	0.27556040	-0.25749577	0.74780981	1.13171185	-0.26887430	0.23489054	-0.14765062	1.23791352	1.77135639	0.09728731	-0.11243012	0.02403260
5518	55.17000000	-0.24994337	-0.08940811	0.07415735	0.39850335	-0.04415929	0.24225309	1.11773243	0.41259966	1.76775960	0.74203331	0.14501120	1.17080556	0.26632988	-0.26887324	0.75026776	1.00255745	-0.26531070	0.19551371	-0.06367036	1.17288548	1.82328461	0.07284214	-0.06498843	0.06094363
5519	55.18000000	-0.24001196	-0.08989949	0.09516654	0.48434556	-0.05546143	0.21141837	1.03627397	0.42657115	1.72316494	0.55421442	0.17748660	1.23940997	0.25702483	-0.25756606	0.70724693	0.91505566	-0.24290103	0.21976860	-0.00165888	1.10922271	1.80859287	0.04977578	-0.06512008	0.11156073
5520	55.19000000	-0.22767107	-0.08857674	0.11071616	0.56465383	-0.05567108	0.18863110	0.99170777	0.43299711	1.65699379	0.41690466	0.17956547	1.29856385	0.23398955	-0.27876548	0.66555379	0.82923955	-0.20939621	0.22661436	0.11135565	1.09146690	1.74690111	0.06093817	-0.08931259	0.15532294
5521	55.20000000	-0.21258315	-0.09543725	0.13521030	0.60861130	-0.05068418	0.16497935	0.98756607	0.41560648	1.58729304	0.33797690	0.15403406	1.35365203	0.21079563	-0.29393906	0.66455197	0.74804578	-0.21850008	0.21969872	0.13759765	1.09389891	1.65146556	0.05040815	-0.11001510	0.19088884
5522	55.21000000	-0.19273557	-0.09583106	0.13979465	0.62624161	-0.06940003	0.13684622	0.96340833	0.38414875	1.51376194	0.32479531	0.12421716	1.40210847	0.20682299	-0.27944659	0.69419651	0.66316278	-0.24498495	0.20584244	0.00627195	1.07529741	1.48975451	0.05741217	-0.06183173	0.21750774
5523	55.22000000	-0.17638344	-0.10378215	0.14238902	0.63900028	-0.11382321	0.11923270	0.90379577	0.35921738	1.43699978	0.35474887	0.11182295	1.43529108	0.17257500	-0.24371316	0.70880628	0.59869091	-0.28408264	0.19070775	-0.05139222	1.04942112	1.32284351	0.04076933	-0.07024955	0.21512020
5524	55.23000000	-0.14553810	-0.11413604	0.15413509	0.64694078	-0.16409480	0.10444501	0.84336690	0.35245878	1.38204519	0.36718276	0.11093414	1.45429126	0.12860167	-0.24108838	0.67903740	0.50608351	-0.29708204	0.17173432	-0.08447545	1.04287536	1.16951513	0.04607571	-0.07471273	0.23171992
5525	55.24000000	-0.12086446	-0.11163024	0.15220998	0.63499422	-0.21453237	0.09712666	0.74297221	0.33626125	1.36711754	0.36694538	0.10507962	1.48608932	0.04802289	-0.23447239	0.64386997	0.35137753	-0.29986849	0.14800702	-0.09860051	1.06224774	1.05638641	0.01990669	-0.02153015	0.27688583
5526	55.25000000	-0.08319871	-0.11805840	0.16249936	0.65273191	-0.23946682	0.09260304	0.59218644	0.30820603	1.37047519	0.41658607	0.10155238	1.52002067	-0.02141694	-0.22988722	0.66181694	0.15806245	-0.29966064	0.13755866	-0.20413551	1.09955292	0.95800978	-0.00375722	0.01570869	0.30624735
5527	55.26000000	-0.04694895	-0.12712449	0.16744896	0.66277346	-0.25135805	0.09142585	0.42189910	0.27647593	1.36306981	0.48575892	0.10982385	1.52602830	-0.06644479	-0.20104022	0.67531017	0.01558164	-0.29956148	0.15146191	-0.23181229	1.09697067	0.85067116	-0.04138546	0.04854298	0.32016772
5528	55.27000000	-0.02341325	-0.10307283	0.17128018	0.64467974	-0.26419589	0.10425368	0.28502092	0.26248046	1.36242395	0.53115934	0.11986466	1.48226724	-0.12116926	-0.19551064	0.68333519	-0.07224724	-0.30668553	0.15978090	-0.27631624	1.08208695	0.77160420	-0.01737019	0.08229575	0.34892315
5529	55.28000000	0.00224451	-0.11065564	0.17481653	0.60791530	-0.28221257	0.12453216	0.20038018	0.26022296	1.39193156	0.56693669	0.13784779	1.42899892	-0.13210221	-0.20221515	0.66741650	-0.09559471	-0.29719748	0.16286887	-0.40698271	1.08241111	0.73979356	-0.08491147	0.11490516	0.35071227
5530	55.29000000	0.02506911	-0.12144185	0.18482410	0.58448205	-0.30005481	0.13880079	0.15895089	0.25987824	1.43922378	0.58998954	0.14937121	1.37941049	-0.10797866	-0.23452791	0.69093581	-0.05312316	-0.29284276	0.16106488	-0.48495418	1.12428561	0.73757115	-0.07172174	0.09973948	0.33611438
5531	55.30000000	0.03545002	-0.11907320	0.18936459	0.57461536	-0.30044974	0.14586327	0.17757522	0.26767991	1.47642765	0.59727500	0.15643149	1.33560781	-0.00758651	-0.22917315	0.75247863	0.04074678	-0.28382853	0.14014625	-0.49010585	1.12875318	0.74845994	-0.05515593	0.13281341	0.33888066
5532	55.31000000	0.04602998	-0.11125640	0.20163911	0.58549052	-0.31018224	0.15107464	0.19391949	0.26574569	1.50576617	0.56830471	0.16608185	1.29428093	0.03733539	-0.21086306	0.76834955	0.15643751	-0.25333068	0.12038619	-0.48057209	1.10290912	0.78300984	-0.07634572	0.12118958	0.34733850
5533	55.32000000	0.06224776	-0.10295966	0.21516489	0.60369275	-0.30970421	0.14230088	0.21815613	0.27160954	1.55801191	0.51826126	0.15187606	1.25263321	0.04099394	-0.19545635	0.77344070	0.27723241	-0.22130421	0.09487723	-0.47271448	1.10428782	0.84589446	-0.07858856	0.12101869	0.35873320
